name Walk10.mot
datacolumns 19
datarows 30
range 0.78000000 0.92500000
endheader

                time	   L_ground_force_vx	   L_ground_force_vy	   L_ground_force_vz	   L_ground_force_px	   L_ground_force_py	   L_ground_force_pz	   R_ground_force_vx	   R_ground_force_vy	   R_ground_force_vz	   R_ground_force_px	   R_ground_force_py	   R_ground_force_pz	   L_ground_torque_x	   L_ground_torque_y	   L_ground_torque_z	   R_ground_torque_x	   R_ground_torque_y	   R_ground_torque_z	
          0.78000000	         -0.94380712	         79.21584786	         15.64434913	          0.00232144	          0.00000000	         -0.00092952	         -0.00000000	          0.00000000	          0.00000000	         -0.00000000	          0.00000000	         -0.00000000	          0.00000000	         -0.01059368	          0.00000000	          0.00000000	          0.00000000	          0.00000000	
          0.78500000	         -5.97637623	        123.33434512	         21.09914914	         -0.08032932	          0.00000000	          0.03209466	         -0.00000000	         -0.00000000	          0.00000000	         -0.00000000	          0.00000000	         -0.00000000	          0.00000000	          0.08801685	          0.00000000	          0.00000000	          0.00000000	          0.00000000	
          0.79000000	        -11.86701171	        172.01219524	         26.57049871	         -0.15671017	          0.00000000	          0.06293534	         -0.00000000	         -0.00000001	          0.00000000	         -0.00000000	          0.00000000	         -0.00000000	          0.00000000	          0.21445919	          0.00000000	          0.00000000	          0.00000000	          0.00000000	
          0.79500000	        -18.63802229	        223.01612515	         31.50225846	         -0.22277413	          0.00000000	          0.09005112	         -0.00000000	         -0.00000001	          0.00000000	         -0.00000000	          0.00000000	         -0.00000000	          0.00000000	          0.37225568	          0.00000000	          0.00000000	          0.00000000	          0.00000000	
          0.80000000	        -26.35492687	        274.06720415	         35.25909695	         -0.27669499	          0.00000000	          0.11276466	         -0.00000000	         -0.00000002	          0.00000000	         -0.00000000	          0.00000000	         -0.00000000	          0.00000000	          0.56463881	          0.00000000	          0.00000000	          0.00000000	          0.00000000	
          0.80500000	        -35.03030437	        323.47973254	         37.29777752	         -0.31824633	          0.00000000	          0.13100595	         -0.00000000	         -0.00000002	          0.00000000	         -0.00000000	          0.00000000	         -0.00000000	          0.00000000	          0.79285064	          0.00000000	          0.00000000	          0.00000000	          0.00000000	
          0.81000000	        -44.53305006	        370.09250372	         37.30320982	         -0.34825625	          0.00000000	          0.14509033	         -0.00000000	         -0.00000003	          0.00000000	         -0.00000000	          0.00000000	         -0.00000000	          0.00000000	          1.05452698	          0.00000000	          0.00000000	         -0.00000000	          0.00000000	
          0.81500000	        -54.57652707	        413.02496848	         35.22729999	         -0.36817296	          0.00000000	          0.15554552	         -0.00000000	         -0.00000004	          0.00000001	         -0.00000000	          0.00000000	         -0.00000000	          0.00000000	          1.34289614	          0.00000000	          0.00000000	         -0.00000000	          0.00000000	
          0.82000000	        -64.75939631	        451.70186155	         31.28128232	         -0.37973720	          0.00000000	          0.16298341	         -0.00000000	         -0.00000005	          0.00000001	         -0.00000000	          0.00000000	         -0.00000000	          0.00000000	          1.64517981	          0.00000000	          0.00000000	         -0.00000000	          0.00000000	
          0.82500000	        -74.66522909	        486.02387129	         25.89194655	         -0.38474737	          0.00000000	          0.16801455	         -0.00000000	         -0.00000006	          0.00000001	         -0.00000000	          0.00000000	         -0.00000000	          0.00000000	          1.94269135	          0.00000000	          0.00000000	         -0.00000000	          0.00000000	
          0.83000000	        -83.99102834	        516.38724791	         19.60786741	         -0.38490323	          0.00000000	          0.17119251	         -0.00000000	         -0.00000007	          0.00000001	         -0.00000000	          0.00000000	         -0.00000000	          0.00000000	          2.21526739	          0.00000000	          0.00000000	         -0.00000000	          0.00000000	
          0.83500000	        -92.61592491	        543.55685372	         12.99746270	         -0.38170626	          0.00000000	          0.17299137	          0.00000000	         -0.00000007	          0.00000001	         -0.00000000	          0.00000000	         -0.00000000	          0.00000000	          2.44728924	          0.00000000	          0.00000000	         -0.00000000	          0.00000000	
          0.84000000	       -100.55028461	        568.55454503	          6.56495115	         -0.37640646	          0.00000000	          0.17380375	          0.00000000	         -0.00000007	          0.00000000	         -0.00000000	          0.00000000	         -0.00000000	          0.00000000	          2.63164205	          0.00000000	          0.00000000	         -0.00000000	          0.00000000	
          0.84500000	       -107.82243761	        592.54821619	          0.69982632	         -0.36999374	          0.00000000	          0.17394405	          0.00000001	         -0.00000005	          0.00000000	          0.00000000	          0.00000000	          0.00000000	          0.00000000	          2.76982111	          0.00000000	          0.00000000	         -0.00000000	          0.00000000	
          0.85000000	       -114.40456213	        616.67105682	         -4.32219008	         -0.36321703	          0.00000000	          0.17365470	          0.00000002	         -0.00000002	         -0.00000000	          0.00000000	          0.00000000	          0.00000000	          0.00000000	          2.86869827	          0.00000000	          0.00000000	         -0.00000000	          0.00000000	
          0.85500000	       -120.20992678	        641.80244478	         -8.31209963	         -0.35661272	          0.00000000	          0.17311391	          0.00000002	          0.00000004	         -0.00000001	          0.00000000	          0.00000000	          0.00000000	          0.00000000	          2.93532149	          0.00000000	          0.00000000	         -0.00000000	          0.00000000	
          0.86000000	       -125.12596300	        668.42610556	        -11.15607892	         -0.35053201	          0.00000000	          0.17244868	          0.00000003	          0.00000011	         -0.00000002	          0.00000000	          0.00000000	          0.00000000	          0.00000000	          2.97432536	          0.00000000	          0.00000000	         -0.00000000	          0.00000000	
          0.86500000	       -129.05019615	        696.62037758	        -12.82219004	         -0.34517163	          0.00000000	          0.17174645	          0.00000004	          0.00000022	         -0.00000004	          0.00000000	          0.00000000	          0.00000000	          0.00000000	          2.98811642	          0.00000000	          0.00000000	         -0.00000000	          0.00000000	
          0.87000000	       -131.91987545	        726.12227876	        -13.36908590	         -0.34060737	          0.00000000	          0.17106634	          0.00000005	          0.00000036	         -0.00000005	          0.00000000	          0.00000000	          0.00000000	          0.00000000	          2.97909827	          0.00000000	          0.00000000	         -0.00000000	          0.00000000	
          0.87500000	       -133.72970428	        756.38219482	        -12.94675893	         -0.33682607	          0.00000000	          0.17044783	          0.00000006	          0.00000054	         -0.00000008	          0.00000000	          0.00000000	          0.00000000	          0.00000000	          2.95156467	          0.00000000	          0.00000000	         -0.00000000	          0.00000000	
          0.88000000	       -134.53003993	        786.60004491	        -11.78452651	         -0.33375448	          0.00000000	          0.16991945	          0.00000007	          0.00000075	         -0.00000010	          0.00000000	          0.00000000	          0.00000000	          0.00000000	          2.91086400	          0.00000000	          0.00000000	         -0.00000000	          0.00000000	
          0.88500000	       -134.40940090	        815.79411440	        -10.16745951	         -0.33128287	          0.00000000	          0.16950414	          0.00000008	          0.00000098	         -0.00000012	          0.00000000	          0.00000000	          0.00000000	          0.00000000	          2.86176519	          0.00000000	          0.00000000	          0.00000000	          0.00000000	
          0.89000000	       -133.47563218	        842.92465894	         -8.40723768	         -0.32928472	          0.00000000	          0.16922091	          0.00000007	          0.00000122	         -0.00000014	          0.00000000	          0.00000000	          0.00000000	          0.00000000	          2.80775426	          0.00000000	          0.00000000	          0.00000001	          0.00000000	
          0.89500000	       -131.84488567	        867.05031030	         -6.80679245	         -0.32763092	          0.00000000	          0.16908353	          0.00000006	          0.00000144	         -0.00000016	          0.00000000	          0.00000000	          0.00000000	          0.00000000	          2.75166816	          0.00000000	          0.00000000	          0.00000001	          0.00000000	
          0.90000000	       -129.63598044	        887.46574428	         -5.61697875	         -0.32620223	          0.00000000	          0.16909804	          0.00000003	          0.00000161	         -0.00000016	          0.00000000	          0.00000000	          0.00000000	          0.00000000	          2.69605532	          0.00000000	          0.00000000	          0.00000002	          0.00000000	
          0.90500000	       -126.96155028	        903.77379836	         -4.99771944	         -0.32489781	          0.00000000	          0.16926135	         -0.00000002	          0.00000168	         -0.00000015	          0.00000000	          0.00000000	          0.00000000	          0.00000000	          2.64254612	          0.00000000	          0.00000000	          0.00000002	          0.00000000	
          0.91000000	       -123.91883213	        915.87974964	         -5.00428727	         -0.32363875	          0.00000000	          0.16956155	         -0.00000010	          0.00000158	         -0.00000012	          0.00000000	          0.00000000	          0.00000000	          0.00000000	          2.59134579	          0.00000000	          0.00000000	          0.00000003	          0.00000000	
          0.91500000	       -120.58697820	        923.93326900	         -5.60564745	         -0.32236794	          0.00000000	          0.16998011	         -0.00000020	          0.00000123	         -0.00000004	          0.00000000	          0.00000000	         -0.00000000	          0.00000000	          2.54132925	          0.00000000	          0.00000000	          0.00000004	          0.00000000	
          0.92000000	       -117.02814277	        928.25588901	         -6.71550590	         -0.32104732	          0.00000000	          0.17049614	         -0.00000034	          0.00000053	          0.00000007	         -0.00000000	          0.00000000	         -0.00000000	          0.00000000	          2.49112306	          0.00000000	          0.00000000	          0.00000005	          0.00000000	
          0.92500000	       -113.28776916	        929.26754797	         -8.21488540	         -0.31965387	          0.00000000	          0.17108997	         -0.00000051	         -0.00000063	          0.00000025	         -0.00000000	          0.00000000	         -0.00000000	          0.00000000	          2.43956298	          0.00000000	          0.00000000	          0.00000006	          0.00000000	
